HIERARCHY
ROOT Hips
{
	OFFSET 0.00000 0.00000 0.00000
	CHANNELS 6 Xposition Yposition Zposition Zrotation Yrotation Xrotation 
	JOINT RightUpLegDummy
	{
		OFFSET 0 0 0
		CHANNELS 3 Zrotation Yrotation Xrotation
		JOINT RightUpLeg
		{
			OFFSET -3.52197 -3.41223 0.04002
			CHANNELS 3 Zrotation Yrotation Xrotation
			JOINT RightLeg
			{
				OFFSET 0.00006 -17.42390 1.60435
				CHANNELS 3 Zrotation Yrotation Xrotation
				JOINT RightFoot
				{
					OFFSET 0.06153 -16.50078 -1.63901
					CHANNELS 3 Zrotation Yrotation Xrotation
					JOINT RightToes
					{
						OFFSET 0.00298 -1.73825 3.34613
						CHANNELS 3 Zrotation Yrotation Xrotation
						End Site
						{
							OFFSET 0.00480 -0.05416 3.85043
						}
					}
				}
			}
		}
	}
	JOINT SpineDummy
	{
		OFFSET 0 0 0
		CHANNELS 3 Zrotation Yrotation Xrotation
		JOINT Spine
		{
			OFFSET 0.00000 4.68130 0.00000
			CHANNELS 3 Zrotation Yrotation Xrotation
			JOINT Spine1
			{
				OFFSET -0.00000 10.10138 0.05002
				CHANNELS 3 Zrotation Yrotation Xrotation
				JOINT HEadDummy
				{
					OFFSET 0 0 0
					CHANNELS 3 Zrotation Yrotation Xrotation
					JOINT Head
					{
						OFFSET -0.00000 3.43865 0.00438
						CHANNELS 3 Zrotation Yrotation Xrotation
						End Site
						{
							OFFSET -0.11417 5.02924 0.98962
						}
					}
				}
				JOINT LeftShoulder1Dummy
				{
					OFFSET 0 0 0
					CHANNELS 3 Zrotation Yrotation Xrotation
					JOINT LeftShoulder1
					{
						OFFSET 3.53937 -0.14262 -0.08662
						CHANNELS 3 Zrotation Yrotation Xrotation
						JOINT LeftArm
						{
							OFFSET 4.04833 -0.00133 0.12681
							CHANNELS 3 Zrotation Yrotation Xrotation
							JOINT LeftForeArm
							{
								OFFSET 10.33880 -0.01036 -0.55515
								CHANNELS 3 Zrotation Yrotation Xrotation
								JOINT LeftHand
								{
									OFFSET 8.69677 0.07543 0.40060
									CHANNELS 3 Zrotation Yrotation Xrotation
									End Site
									{
										OFFSET 5.28377 -0.21905 0.59205
									}
								}
							}
						}
					}
				}
				JOINT RightShoulderDummy
				{
					OFFSET 0 0 0
					CHANNELS 3 Zrotation Yrotation Xrotation
					JOINT RightShoulder
					{
						OFFSET -3.53937 -0.14262 -0.08660
						CHANNELS 3 Zrotation Yrotation Xrotation
						JOINT RightArm
						{
							OFFSET -4.04833 -0.00133 0.12683
							CHANNELS 3 Zrotation Yrotation Xrotation
							JOINT RightForeArm
							{
								OFFSET -10.37987 -0.01039 -0.55511
								CHANNELS 3 Zrotation Yrotation Xrotation
								JOINT RightHand
								{
									OFFSET -8.67398 0.07538 0.40058
									CHANNELS 3 Zrotation Yrotation Xrotation
									End Site
									{
										OFFSET -5.24810 -0.21916 0.59204
									}
								}
							}
						}
					}
				}
			}
		}
	}
	JOINT LeftUpLegDummy
	{
		OFFSET 0 0 0
		CHANNELS 3 Zrotation Yrotation Xrotation
		JOINT LeftUpLeg
		{
			OFFSET 3.52197 -3.41223 0.04002
			CHANNELS 3 Zrotation Yrotation Xrotation
			JOINT LeftLeg
			{
				OFFSET -0.00012 -17.42399 1.60337
				CHANNELS 3 Zrotation Yrotation Xrotation
				JOINT LeftFoot
				{
					OFFSET -0.09972 -16.50070 -1.63802
					CHANNELS 3 Zrotation Yrotation Xrotation
					JOINT LeftToes
					{
						OFFSET -0.01575 -1.73823 3.34611
						CHANNELS 3 Zrotation Yrotation Xrotation
						End Site
						{
							OFFSET 0.03150 -0.01868 3.85031
						}
					}
				}
			}
		}
	}
}
MOTION
Frames: 19
Frame Time: 0.033333
44.4609 39.7384 79.8243 -177.4490 2.1737 176.4580 0.0000 0.0000 0.0000 5.2327 0.2729 2.7206 -0.8401 -1.9302 3.2822 -3.6596 0.2447 -2.8665 0.0000 -0.0000 -0.0000 0.0000 0.0000 0.0000 1.4409 0.0001 2.0818 3.1561 -0.7007 1.6642 -0.0000 0.0000 -0.0000 -1.5568 4.2096 -0.9942 -0.0000 0.0000 -0.0000 -34.8151 -2.3958 2.4226 -44.3599 -13.0816 -17.2447 -10.8060 5.1350 47.7045 13.9109 -3.7101 -1.0568 -0.0000 0.0000 -0.0000 34.4314 5.0627 3.4649 41.3124 4.2306 -17.7276 10.2638 0.6658 22.7190 -13.2444 -0.5707 -0.5527 0.0000 0.0000 0.0000 1.3125 2.0750 1.3445 -0.5106 -1.0300 8.1236 4.4130 -0.1492 -6.6490 0.0000 0.0000 -0.0000
44.4640 39.7384 79.8454 -177.5460 2.4447 176.6310 0.0000 0.0000 0.0000 5.1361 0.3009 2.3613 -0.8288 -1.6340 3.5458 -3.5243 0.2361 -2.9147 0.0000 -0.0000 -0.0000 0.0000 0.0000 0.0000 1.3815 0.1417 2.0567 3.1273 -0.5410 1.4749 -0.0000 0.0000 -0.0000 -1.6692 4.1771 -1.0014 -0.0000 0.0000 -0.0000 -34.8341 -2.4086 2.4226 -44.2610 -13.0477 -17.3844 -10.7395 5.1307 47.8853 13.7978 -3.8094 -1.0627 -0.0000 0.0000 -0.0000 34.3136 5.0276 3.4405 41.5191 4.2311 -17.8223 10.2211 0.7001 22.7809 -13.2836 -0.7720 -0.5327 0.0000 0.0000 0.0000 1.2246 2.0553 1.1716 -0.4989 -0.7390 8.0675 4.3678 -0.1463 -6.5923 0.0000 0.0000 -0.0000
44.4678 39.7384 79.8583 -177.6100 2.5889 176.7350 0.0000 0.0000 0.0000 5.0729 0.3185 2.1388 -0.8248 -1.4731 3.7148 -3.3735 0.2265 -2.9488 0.0000 -0.0000 -0.0000 0.0000 0.0000 0.0000 1.3188 0.2218 2.0375 3.1225 -0.4513 1.3416 -0.0000 0.0000 -0.0000 -1.8412 4.2108 -1.1159 -0.0000 0.0000 -0.0000 -34.8491 -2.4214 2.4226 -44.1143 -13.0257 -17.5144 -10.6811 5.1252 48.1015 13.8317 -3.7497 -1.0605 -0.0000 0.0000 -0.0000 34.2453 5.0028 3.4246 41.6634 4.2131 -17.9073 10.1906 0.7290 22.7455 -13.2893 -0.8607 -0.5234 0.0000 0.0000 0.0000 1.1691 2.0424 1.0614 -0.4986 -0.5860 8.0418 4.3758 -0.1469 -6.5596 0.0000 0.0000 -0.0000
44.4718 39.7384 79.8481 -177.5600 2.3991 176.6540 0.0000 0.0000 0.0000 5.1277 0.3090 2.3158 -0.8389 -1.6626 3.5821 -3.3675 0.2261 -2.9196 0.0000 -0.0000 -0.0000 0.0000 0.0000 0.0000 1.2816 0.1399 2.0365 3.1968 -0.5514 1.4040 -0.0000 0.0000 -0.0000 -1.9151 4.3516 -1.3179 -0.0000 0.0000 -0.0000 -34.8365 -2.4193 2.4214 -43.9980 -13.0699 -17.5748 -10.6718 5.1236 48.1581 14.1288 -3.4746 -1.0521 -0.0000 0.0000 -0.0000 34.2900 5.0100 3.4314 41.6073 4.1886 -17.9381 10.1899 0.6775 22.7266 -13.1964 -0.5206 -0.5559 0.0000 0.0000 0.0000 1.2270 2.0616 1.1281 -0.5259 -0.8006 8.0873 4.4146 -0.1493 -6.5851 0.0000 0.0000 -0.0000
44.4773 39.7384 79.8362 -177.4830 2.1764 176.5600 0.0000 0.0000 0.0000 5.2185 0.3104 2.5323 -0.8579 -1.8988 3.4062 -3.4562 0.2316 -2.8746 0.0000 -0.0000 -0.0000 0.0000 0.0000 0.0000 1.2399 0.0475 2.0466 3.3182 -0.6720 1.4781 -0.0000 0.0000 -0.0000 -1.8284 4.5407 -1.4485 -0.0000 0.0000 -0.0000 -34.7892 -2.3843 2.4043 -43.9203 -13.1401 -17.6871 -10.6440 5.1246 48.1374 14.4288 -3.3094 -1.0560 -0.0000 0.0000 -0.0000 34.3131 5.0153 3.4355 41.5453 4.1775 -17.9759 10.1806 0.5571 22.9267 -13.1006 0.0605 -0.6135 0.0000 0.0000 0.0000 1.3114 2.0855 1.1922 -0.5470 -1.0495 8.1615 4.4134 -0.1493 -6.6271 0.0000 0.0000 -0.0000
44.4812 39.7384 79.8362 -177.4570 2.1286 176.5400 0.0000 0.0000 0.0000 5.2553 0.3193 2.5650 -0.8635 -1.9557 3.3902 -3.5157 0.2355 -2.8736 0.0000 -0.0000 -0.0000 0.0000 0.0000 0.0000 1.2041 0.0409 2.0912 3.4079 -0.6940 1.4373 -0.0000 0.0000 -0.0000 -1.7096 4.7113 -1.4688 -0.0000 0.0000 -0.0000 -34.7261 -2.3255 2.3766 -43.8540 -13.1604 -17.8559 -10.5796 5.1248 48.1566 14.4839 -3.4523 -1.0769 -0.0000 0.0000 -0.0000 34.2462 5.0015 3.4242 41.6056 4.1710 -18.0202 10.1601 0.4650 23.2010 -13.1053 0.4442 -0.6543 0.0000 0.0000 0.0000 1.3322 2.0789 1.1843 -0.5292 -1.0930 8.2084 4.4161 -0.1494 -6.6507 0.0000 0.0000 -0.0000
44.4806 39.7384 79.8384 -177.4630 2.1194 176.5130 0.0000 0.0000 0.0000 5.2416 0.2980 2.5721 -0.8510 -1.9520 3.4333 -3.5309 0.2365 -2.9059 0.0000 -0.0000 -0.0000 0.0000 0.0000 0.0000 1.1824 0.0566 2.1643 3.4639 -0.6855 1.3780 -0.0000 0.0000 -0.0000 -1.7064 4.8367 -1.5022 -0.0000 0.0000 -0.0000 -34.7034 -2.2993 2.3646 -43.7700 -13.1204 -17.9139 -10.5680 5.1252 48.1488 14.3697 -3.6895 -1.0958 -0.0000 0.0000 -0.0000 34.1880 4.9958 3.4169 41.6495 4.1331 -17.9841 10.1752 0.4675 23.1995 -13.1499 0.4507 -0.6572 0.0000 0.0000 0.0000 1.3083 2.0520 1.2112 -0.5004 -1.0817 8.2049 4.4777 -0.1534 -6.6513 0.0000 0.0000 -0.0000
44.4800 39.7384 79.8383 -177.4730 2.0343 176.4650 0.0000 0.0000 0.0000 5.2181 0.2612 2.6294 -0.8403 -2.0145 3.4264 -3.5467 0.2376 -2.9234 0.0000 -0.0000 -0.0000 0.0000 0.0000 0.0000 1.1317 0.0511 2.1729 3.5418 -0.7076 1.4584 -0.0000 0.0000 -0.0000 -1.7074 4.9098 -1.6079 -0.0000 0.0000 -0.0000 -34.7464 -2.3336 2.3811 -43.6769 -13.1176 -17.7968 -10.6464 5.1278 48.0257 14.3024 -3.7623 -1.0997 -0.0000 0.0000 -0.0000 34.2215 5.0166 3.4281 41.5476 4.0954 -17.8589 10.2325 0.5297 22.8992 -13.1103 0.2927 -0.6385 0.0000 0.0000 0.0000 1.2940 2.0433 1.2755 -0.5135 -1.1613 8.1655 4.5284 -0.1566 -6.6324 0.0000 0.0000 -0.0000
44.4840 39.7384 79.8474 -177.5000 1.9718 176.4900 0.0000 0.0000 0.0000 5.1982 0.2658 2.5768 -0.8573 -2.0753 3.4446 -3.5458 0.2375 -2.9148 0.0000 -0.0000 -0.0000 0.0000 0.0000 0.0000 1.0378 0.0602 2.1400 3.6277 -0.7151 1.5420 -0.0000 0.0000 -0.0000 -1.4817 4.9212 -1.6305 -0.0000 0.0000 -0.0000 -34.8154 -2.3889 2.4077 -43.5993 -13.1515 -17.6753 -10.7188 5.1311 47.8778 14.3231 -3.7316 -1.1015 -0.0000 0.0000 -0.0000 34.2887 5.0416 3.4440 41.4239 4.0842 -17.7608 10.2755 0.5889 22.6549 -12.9905 0.2452 -0.6276 0.0000 0.0000 0.0000 1.2880 2.0555 1.2439 -0.5606 -1.2275 8.1298 4.4924 -0.1543 -6.6004 0.0000 0.0000 -0.0000
44.4904 39.7384 79.8680 -177.5350 1.9677 176.5820 0.0000 0.0000 0.0000 5.1894 0.3145 2.3996 -0.8993 -2.1042 3.5257 -3.5107 0.2352 -2.9019 0.0000 -0.0000 -0.0000 0.0000 0.0000 0.0000 0.9720 0.0700 2.1581 3.6496 -0.7056 1.5061 -0.0000 0.0000 -0.0000 -1.1358 4.8577 -1.5458 -0.0000 0.0000 -0.0000 -34.8571 -2.4086 2.4183 -43.5572 -13.1825 -17.6909 -10.7013 5.1328 47.8286 14.3531 -3.7366 -1.1025 -0.0000 0.0000 -0.0000 34.2931 5.0420 3.4445 41.4610 4.1275 -17.7628 10.2686 0.6338 22.6545 -12.9084 0.3233 -0.6318 0.0000 0.0000 0.0000 1.2696 2.0511 1.1015 -0.5832 -1.2134 8.1380 4.4320 -0.1505 -6.5738 0.0000 0.0000 -0.0000
44.4933 39.7384 79.8854 -177.5360 1.9132 176.6410 0.0000 0.0000 0.0000 5.2082 0.3569 2.2889 -0.9362 -2.1886 3.5669 -3.4925 0.2340 -2.8934 0.0000 -0.0000 -0.0000 0.0000 0.0000 0.0000 0.9858 0.0306 2.2372 3.6206 -0.7373 1.4167 -0.0000 0.0000 -0.0000 -1.0695 4.7068 -1.5244 -0.0000 0.0000 -0.0000 -34.8807 -2.4080 2.4195 -43.5617 -13.2105 -17.7559 -10.6500 5.1328 47.8480 14.3986 -3.6766 -1.0966 -0.0000 0.0000 -0.0000 34.2504 5.0265 3.4346 41.5987 4.2028 -17.7835 10.2543 0.6801 22.6775 -12.9382 0.3211 -0.6330 0.0000 0.0000 0.0000 1.2588 2.0222 0.9712 -0.5656 -1.2297 8.1960 4.4361 -0.1507 -6.5688 0.0000 0.0000 -0.0000
44.4941 39.7384 79.8918 -177.4970 1.8088 176.6500 0.0000 0.0000 0.0000 5.2513 0.3775 2.2966 -0.9499 -2.3182 3.5208 -3.5077 0.2349 -2.8765 0.0000 -0.0000 -0.0000 0.0000 0.0000 0.0000 1.0366 -0.0207 2.2983 3.6197 -0.7898 1.3668 -0.0000 0.0000 -0.0000 -1.3817 4.4916 -1.6062 -0.0000 0.0000 -0.0000 -34.9124 -2.4370 2.4332 -43.6336 -13.2520 -17.7176 -10.6564 5.1327 47.8489 14.4904 -3.4411 -1.0761 -0.0000 0.0000 -0.0000 34.2615 5.0258 3.4353 41.6258 4.2496 -17.7257 10.2836 0.7237 22.5135 -13.0429 0.1365 -0.6187 0.0000 0.0000 0.0000 1.2861 2.0142 0.9020 -0.5589 -1.3203 8.2690 4.4833 -0.1538 -6.5791 0.0000 0.0000 -0.0000
44.4940 39.7384 79.8951 -177.4620 1.7752 176.6650 0.0000 0.0000 0.0000 5.2873 0.3985 2.3023 -0.9500 -2.3735 3.4668 -3.4902 0.2337 -2.8454 0.0000 -0.0000 -0.0000 0.0000 0.0000 0.0000 1.0765 -0.0264 2.3374 3.6400 -0.7993 1.3219 -0.0000 0.0000 -0.0000 -1.7035 4.3314 -1.6213 -0.0000 0.0000 -0.0000 -34.9472 -2.4858 2.4553 -43.7514 -13.2558 -17.5753 -10.7186 5.1329 47.8178 14.5410 -3.2340 -1.0557 -0.0000 0.0000 -0.0000 34.3780 5.0512 3.4556 41.4791 4.2470 -17.6114 10.3424 0.7481 22.2949 -13.1514 -0.0783 -0.6012 0.0000 0.0000 0.0000 1.3325 2.0458 0.8554 -0.5875 -1.3806 8.3071 4.5171 -0.1559 -6.5810 0.0000 0.0000 -0.0000
44.4943 39.7384 79.9011 -177.4610 1.8141 176.6890 0.0000 0.0000 0.0000 5.2930 0.4156 2.2670 -0.9516 -2.3434 3.4602 -3.4337 0.2300 -2.8171 0.0000 -0.0000 -0.0000 0.0000 0.0000 0.0000 1.1088 -0.0329 2.3824 3.6204 -0.8024 1.3107 -0.0000 0.0000 -0.0000 -1.7522 4.4009 -1.5431 -0.0000 0.0000 -0.0000 -34.9666 -2.4908 2.4585 -43.8589 -13.2007 -17.4386 -10.7687 5.1334 47.7766 14.4426 -3.3286 -1.0577 -0.0000 0.0000 -0.0000 34.4905 5.0769 3.4757 41.3392 4.3068 -17.5234 10.3806 0.7290 22.2450 -13.2414 -0.1682 -0.5949 0.0000 0.0000 0.0000 1.3438 2.0625 0.8314 -0.6021 -1.3610 8.2859 4.5309 -0.1568 -6.5576 0.0000 0.0000 -0.0000
44.4957 39.7384 79.9051 -177.4820 1.8262 176.7060 0.0000 0.0000 0.0000 5.2783 0.4162 2.2324 -0.9606 -2.3303 3.4753 -3.4307 0.2298 -2.8121 0.0000 -0.0000 -0.0000 0.0000 0.0000 0.0000 1.1124 -0.0917 2.2926 3.6031 -0.8694 1.5700 -0.0000 0.0000 -0.0000 -1.6696 4.7243 -1.5997 -0.0000 0.0000 -0.0000 -34.8943 -2.4300 2.4293 -44.0384 -13.2413 -17.3809 -10.7449 5.1343 47.7564 14.2415 -3.6275 -1.0699 -0.0000 0.0000 -0.0000 34.3780 5.0612 3.4596 41.4590 4.6011 -17.5178 10.3626 0.6293 22.3527 -13.3157 -0.1966 -0.5927 0.0000 0.0000 0.0000 1.3083 2.0268 0.8322 -0.5715 -1.3242 8.2313 4.5195 -0.1561 -6.5206 0.0000 0.0000 -0.0000
44.4990 39.7384 79.9030 -177.5000 1.8003 176.7490 0.0000 0.0000 0.0000 5.2723 0.4215 2.1891 -0.9766 -2.3702 3.4790 -3.4978 0.2342 -2.8245 0.0000 -0.0000 -0.0000 0.0000 0.0000 0.0000 1.0527 -0.1549 2.2665 3.6731 -0.9489 1.6234 -0.0000 0.0000 -0.0000 -1.5902 5.1160 -1.6085 -0.0000 0.0000 -0.0000 -34.9014 -2.3698 2.4051 -44.1261 -13.1784 -17.3660 -10.7304 5.1337 47.7821 14.0863 -3.8052 -1.0800 -0.0000 0.0000 -0.0000 34.2412 5.0413 3.4397 41.5752 4.7513 -17.5130 10.3570 0.5315 22.4253 -13.3115 -0.2065 -0.5949 0.0000 0.0000 0.0000 1.2812 1.9916 0.8058 -0.5479 -1.3207 8.1941 4.4799 -0.1535 -6.5005 0.0000 0.0000 -0.0000
44.5068 39.7398 79.8969 -177.5030 1.7800 176.8210 0.0000 0.0000 0.0000 5.2833 0.4389 2.1353 -0.9840 -2.4107 3.4526 -3.5278 0.2361 -2.8249 0.0000 -0.0000 -0.0000 0.0000 0.0000 0.0000 0.9428 -0.1874 2.3295 3.8382 -1.0045 1.4195 -0.0000 0.0000 -0.0000 -1.7205 5.1048 -1.6646 -0.0000 0.0000 -0.0000 -34.9557 -2.3214 2.3886 -44.1952 -13.0175 -17.3558 -10.7413 5.1321 47.8355 14.0509 -3.7981 -1.0834 -0.0000 0.0000 -0.0000 34.1129 5.0292 3.4238 41.6478 4.7090 -17.5403 10.3420 0.4116 22.6114 -13.1996 -0.0274 -0.6087 0.0000 0.0000 0.0000 1.3001 2.0057 0.7407 -0.5725 -1.3495 8.1842 4.4683 -0.1528 -6.5004 0.0000 0.0000 -0.0000
44.5163 39.7413 79.8933 -177.5070 1.7789 176.8960 0.0000 0.0000 0.0000 5.2797 0.4345 2.0768 -0.9593 -2.3955 3.4164 -3.4779 0.2328 -2.8049 0.0000 -0.0000 -0.0000 0.0000 0.0000 0.0000 0.9688 -0.2594 2.3396 3.8085 -1.0701 1.3072 -0.0000 0.0000 -0.0000 -2.3886 4.3273 -2.2451 -0.0000 0.0000 -0.0000 -34.8401 -2.2319 2.3451 -44.3847 -12.9196 -17.3475 -10.7423 5.1320 47.8363 14.0850 -3.8468 -1.0913 -0.0000 0.0000 -0.0000 33.9703 5.0251 3.4099 41.8014 4.7802 -17.6172 10.2792 0.1862 23.1024 -13.1004 0.3313 -0.6422 0.0000 0.0000 0.0000 1.3119 2.0113 0.6730 -0.5811 -1.3526 8.1599 4.5117 -0.1556 -6.4834 0.0000 0.0000 -0.0000
44.5254 39.7420 79.9008 -177.5590 1.8756 177.0270 0.0000 0.0000 0.0000 5.2187 0.4106 1.8828 -0.9119 -2.2560 3.4851 -3.4484 0.2309 -2.8031 0.0000 -0.0000 -0.0000 0.0000 0.0000 0.0000 1.2656 -0.3640 2.8261 3.3239 -1.0561 0.3793 -0.0000 0.0000 -0.0000 -2.0991 4.2902 -1.7729 -0.0000 0.0000 -0.0000 -34.8095 -2.1126 2.2947 -44.2274 -12.3973 -17.2985 -10.8712 5.1322 47.7761 14.1342 -4.0236 -1.1155 -0.0000 0.0000 -0.0000 34.2880 5.0958 3.4657 41.5909 4.4490 -17.4572 10.3483 0.1133 23.5029 -13.1588 0.3997 -0.6522 0.0000 0.0000 0.0000 1.2292 1.9246 0.5553 -0.4887 -1.1786 8.0908 4.5094 -0.1554 -6.4224 0.0000 0.0000 -0.0000
